<svg viewBox="0 0 512 512" xmlns="http://www.w3.org/2000/svg"><path d="M249.405 433.312c-25.764-1.505-46.962-6.567-68.501-16.36-25.582-11.631-49.324-31.04-67.27-54.99-8.195-10.938-13.802-20.394-19.186-32.358-17.507-38.904-20.7-81.926-9.086-122.45 6.74-23.516 17.519-44.158 32.895-62.995 17.227-21.103 38.658-37.994 61.805-48.71 48.452-22.433 103.427-22.433 151.879 0 29.946 13.864 56.434 37.632 75.344 67.606 18.082 28.661 27.81 66.378 26 100.807-1.356 25.82-6.95 47.665-18.118 70.76-3.538 7.314-5.527 10.855-9.565 17.023-18.075 27.606-42.565 49.65-70.275 63.255-19.761 9.702-41.235 15.696-63.657 17.77-5.17.478-18.494.862-22.265.642zm3.816-23.208c-.425-.779-1.84-2.501-3.145-3.827-4.144-4.21-8.019-5.636-16.963-6.242-8.9-.603-15.951-3.159-23.076-8.365-3.682-2.69-17.668-16.806-20.552-20.743-7.667-10.465-10.974-20.704-11.006-34.073-.02-8.124 1.122-14.889 3.614-21.418 3.538-9.272 9.862-17.509 18.409-23.976 4.061-3.074 20.598-14.677 23.09-16.202 6.502-3.98 13.502-6.496 21.077-7.578 2.056-.294 7.162-.433 15.73-.428 10.584.006 13.218.105 15.899.596 9.748 1.788 18.285 5.518 24.863 10.862.93.755 5.726 4.81 10.656 9.011 4.93 4.2 9.787 8.284 10.793 9.074 3.214 2.526 5.741 3.315 12.086 3.774 5.42.393 7.056.682 10.78 1.907 5.812 1.912 9.734 4.458 15.899 10.32 5.65 5.371 8.589 7.248 13.758 8.786 2.215.659 3.47.753 11.797.885l9.318.148 1.906-4.006c2.853-5.995 5.98-14 6.81-17.429l.22-.907-14.294-.125c-14.271-.125-14.298-.127-17.676-1.037-3.905-1.052-8.781-3.305-11.957-5.525-4.314-3.016-15.839-12.589-18.116-15.048-2.896-3.127-4.876-6.482-6.322-10.712-1.071-3.136-1.122-3.506-1.093-8.023.033-5.213.567-7.91 2.455-12.405.563-1.34.989-2.455.946-2.478-.043-.023-1.753-.455-3.8-.96-9.64-2.379-16.89-8.21-20.783-16.717-.447-.976-.874-1.776-.95-1.776-.074 0-2.816 2.53-6.093 5.622-8.004 7.552-9.412 8.678-13.041 10.429-6.74 3.251-14.212 3.38-20.758.36-3.165-1.461-5.143-2.839-8.15-5.678-1.574-1.485-2.686-2.282-3.089-2.214-.346.06-2.42 2.39-4.609 5.182-7.3 9.305-9.225 11.154-14.287 13.717-4.438 2.246-7.17 2.818-13.444 2.811-4.898-.005-5.695-.091-8.392-.913-5.313-1.62-8.884-3.808-12.581-7.706-5.447-5.746-8.038-11.655-8.51-19.41-.258-4.249.294-8.553 1.6-12.464 2-5.992 4.087-8.757 13.08-17.329l7.361-7.016.257-2.702c.93-9.765 5.654-17.87 13.507-23.169 1.372-.926 11.852-6.27 23.288-11.877 14.953-7.33 21.066-10.49 21.762-11.25.85-.93.948-1.248.795-2.606-.217-1.925-1.99-3.768-3.625-3.768-.566 0-2.664.821-4.682 1.834-5.025 2.52-6.867 3.01-10.685 2.843-2.689-.118-3.421-.293-5.617-1.34-2.775-1.324-5.547-3.628-7.126-5.924-1.725-2.507-2.414-4.948-2.42-8.576-.005-2.875.25-4.23 2.422-12.855 1.335-5.303 2.514-9.927 2.62-10.276.181-.603.01-.623-3.482-.4-15.844 1.015-31.204 3.913-44.604 8.417-15.674 5.267-30.39 13.063-43.13 22.85-28.674 22.022-48.176 51.514-56.48 85.409-6.353 25.931-6.343 51.284.03 76.839 10.32 41.377 37.378 76.455 75.224 97.516 21.189 11.793 45.88 18.544 71.81 19.636l1.447.061zm-77.56-221.283c-4.615-1.52-8.278-6.16-8.285-10.495-.002-1.514.245-2.511 1.048-4.228.96-2.05 2.145-3.33 13.447-14.511 13.93-13.783 14.673-14.355 18.63-14.336 5.556.026 10.866 5.316 10.893 10.849.02 4.097-.444 4.692-14.66 18.81-9.383 9.32-13.034 12.73-14.244 13.31-1.966.944-4.984 1.21-6.83.601zM289.828 407.65c17.49-3.77 37.109-11.87 50.742-20.95a165.201 165.201 0 0013.87-10.305c4.573-3.771 17.09-16.193 20.595-20.44 3.23-3.912 8.492-10.853 8.342-11.003-.065-.065-2.003-.252-4.307-.415-7.178-.509-11.971-1.782-17.865-4.744-4.568-2.295-7.519-4.492-12.724-9.47-6.813-6.516-8.422-7.202-18.992-8.091-6.937-.584-11.998-2.294-17.454-5.9-1.516-1.001-8.236-6.326-14.934-11.832-18.249-15.002-18.499-15.102-37.526-15.09-16.684.011-16.829.059-34.206 11.204-8.73 5.6-11.32 7.44-13.859 9.846-8.01 7.594-11.286 16.016-10.888 27.993.2 5.982.783 8.56 2.963 13.086 2.046 4.25 4.665 7.403 12.887 15.522 6.885 6.799 7.81 7.59 10.337 8.853 3.297 1.647 4.773 1.966 11.3 2.436 10.145.731 16.714 3.377 24.995 10.068 5.378 4.345 9.993 10.835 12.172 17.116.594 1.711 1.204 3.43 1.356 3.817l.276.706 5.192-.93c2.855-.512 6.333-1.177 7.728-1.477zm120.747-134.062c3.546-37.382-5.642-75.08-25.293-103.766-19.661-28.702-45.399-48.854-76.341-59.774-5.984-2.112-12.583-3.982-19.38-5.491-5.684-1.262-13.897-2.716-14.114-2.5-.21.211-2.844 12.258-2.709 12.393.068.068.977-.055 2.021-.272 2.316-.48 7.493-.492 9.924-.023 2.168.42 6.114 2.108 8.19 3.505.837.563 2.838 2.345 4.446 3.959 3.286 3.298 5.06 6.43 6.416 11.33 2.044 7.39-.07 17.11-4.968 22.834-3.465 4.05-4.744 4.8-28.39 16.64-23.825 11.932-24.276 12.202-25.13 15.052-.225.753-.412 2.188-.416 3.19-.009 2.883-.883 6.326-2.37 9.345-1.149 2.33-2.084 3.525-5.693 7.273-13.928 14.467-13.992 14.55-14.02 18.331-.029 3.882 2.08 6.771 5.713 7.827 4.14 1.204 5.54.258 11.352-7.664 2.483-3.384 5.302-6.855 6.266-7.713 5.105-4.544 12.922-7.013 19.398-6.126 6.063.83 10.222 3.228 14.826 8.547 1.14 1.316 3.055 1.82 4.874 1.282 1.224-.362 3.273-2.249 13.785-12.697 6.79-6.75 12.956-12.647 13.7-13.107 3.033-1.87 7.311-2.543 10.21-1.603 1.861.603 4.866 2.204 5.913 3.15 3.534 3.192 4.674 6.386 4.908 13.75.092 2.885.327 5.764.522 6.4.195.635.963 1.815 1.706 2.62 1.604 1.74 3.667 2.476 6.993 2.494 8.566.046 14.806 3.701 18.098 10.603 1.797 3.764 2.223 5.478 2.218 8.901-.006 4.054-.814 6.522-3.685 11.248-2.471 4.07-2.718 6.986-.832 9.84 1.236 1.869 12.645 11.053 15.778 12.7 3.826 2.012 4.86 2.117 21.073 2.147l14.57.027z"/></svg>