<svg width="542.508" height="116.576" viewBox="0 0 531.091 114.123" xmlns="http://www.w3.org/2000/svg"><path d="M278.173 20.062c.004 12.897 0 60.148 0 74h9.8V76.349a.629.629 0 01.183-.446l5.017-5.017a.629.629 0 01.964.802l.253-.337 17.018 22.677h12.522A3749.422 3749.422 0 01300.28 64.57a.629.629 0 01.047-.836l20.216-20.217h-11.56l-19.936 19.936a.629.629 0 01-1.074-.445V20.062zM93.399 23.304c.058 23.56-.038 60.67-.04 70.725h15.912a.629.629 0 01.11-.01c9.624-.05 21.092-1.4 27.49-8.856 8.23-9.593 3.604-25.744-9.228-28.152a.629.629 0 01-.209-1.156c3.913-2.359 6.89-4.2 9.161-8.202 3.881-6.85 1.012-15.636-5.294-19.851h-.001c-6.913-4.61-14.214-4.511-22.344-4.498zm163.763.099a5.569 5.569 0 00-3.884 1.614 5.57 5.57 0 00-1.61 3.888c0 1.44.594 2.872 1.612 3.89a5.569 5.569 0 003.89 1.612 5.57 5.57 0 003.892-1.611 5.568 5.568 0 001.612-3.89c0-1.442-.593-2.873-1.612-3.891a5.57 5.57 0 00-3.899-1.612zm-143.911 7.001c3.314.027 6.788.308 9.592 1.692 6.198 3.058 7.605 11.845 3.188 16.81-1.444 1.63-3.23 2.59-5.209 3.24-2.916.968-5.064.978-7.975.985a.629.629 0 01-.001 0h-9.078a.629.629 0 01-.629-.63c.01-7.098-.03-14.201.036-21.308a.629.629 0 01.618-.623c2.849-.05 5.306-.132 8.05-.164a74.15 74.15 0 011.408-.002zm58.985 11.893c-6.803-.072-14.067 2.007-19.051 4.746l2.17 5.922 5.23-2.197a.629.629 0 01.046-.018c3.478-1.149 7.75-1.959 11.646-1.418 3.896.541 7.456 2.526 9.14 6.831.657 1.66.713 3.109.79 4.739a.629.629 0 01-.628.658c-5.896 0-13.115.542-18.597 2.469-4.36 1.536-8.293 3.856-10.944 7.638a.629.629 0 010 .001c-4.302 6.126-2.545 15.101 3.333 19.53 2.834 2.13 5.2 2.773 8.708 2.824 8.494.11 11.87-.413 18.374-6.32a.629.629 0 011.051.433c.025.495.05.948.085 1.372a.629.629 0 010 .01l.279 4.489h8.988l-.833-7.716a.629.629 0 01-.019-.115c-.013-.2-.028-.407-.03-.595a.629.629 0 010-.007V64.174c-.078-6.106-1.4-12.583-5.773-17.007-3.43-3.397-8.522-4.812-13.965-4.87zm51.263.127c-6.078.11-12.093 1.95-15.475 7.178-.993 1.536-1.581 3.151-2.011 4.973-.29 1.707-.344 2.585-.001 4.287a.629.629 0 01.005.023c.507 3.109 1.776 5.254 3.496 6.897 1.72 1.642 3.915 2.773 6.251 3.725 4.673 1.905 9.932 3.02 12.792 6.62a.629.629 0 010 .002c2.15 2.708 1.775 6.158-.589 8.485-2.363 2.327-6.6 3.607-12.139 2.568v.001c-2.106-.395-3.618-1.035-5.12-1.61-1.363-.52-2.785-.967-4.67-1.222l-1.665 6.66c4.309 1.71 7.489 2.943 12.215 2.907a.629.629 0 01.006 0h9.651c6.937-1.28 12.744-6.443 13.37-13.588a.629.629 0 010-.002c.368-4.145-1.05-7.285-3.457-9.778-2.408-2.493-5.832-4.3-9.4-5.563-1.823-.645-4.327-1.38-6.53-2.542-2.201-1.161-4.167-2.798-4.685-5.275a.629.629 0 010-.001c-.476-2.281.462-4.264 1.968-5.612 1.506-1.347 3.562-2.134 5.53-2.25 2.915-.166 5.008.268 6.949.847 1.788.534 3.492 1.158 5.652 1.602l.375-1.074a.629.629 0 010-.002l1.804-5.15-2.478-1.116h-.001a.629.629 0 01-.096-.036c-1.773-.857-4.434-1.342-5.777-1.544a.629.629 0 01-.001 0 35.983 35.983 0 00-5.969-.41zm28.546 1.038v50.433h10.02V43.462zm-140.639 16.76c5.315.043 11.056.496 14.755 3.219 6.503 4.78 6.514 15.622-.019 20.076-4.942 3.374-11.053 3.346-16.54 3.333-1.485 0-5.845.026-5.845.026a.629.629 0 01-.633-.63c.025-8.437.015-16.876.015-25.314a.629.629 0 01.629-.629c1.587 0 3.434-.054 5.393-.076.735-.008 1.486-.01 2.245-.005zm66.281 7.862a.629.629 0 01.001 0h4.54a.629.629 0 01.628.629v4.538a.629.629 0 010 .008c-.033 2.731-.255 4.885-1.64 7.426a.629.629 0 010 .002c-2.898 5.289-7.671 6.963-13.271 6.797-1.725-.045-3.23-.155-4.843-1.218-5.52-3.638-4.78-11.848.668-15.153a.629.629 0 01.002 0c1.544-.932 3.66-1.619 5.328-2.05a.629.629 0 01.002 0c3.397-.872 5.164-.972 8.585-.979z" fill="#1e90ff"/><path d="M353.173 31.547a3.88 3.88 0 00-3.89 3.894v.02a.912.912 0 010 .001v20.843c0 2.161 1.741 3.926 3.895 3.926 1.806 0 3.895-1.858 3.895-3.894V35.462c0-1.953-1.844-3.894-3.9-3.915zm64.676 11.01c-3.377.014-6.84.875-10.071 2.646a.912.912 0 01-.001 0c-3.269 1.788-4.387 3.14-6.864 5.927a.912.912 0 01-1.593-.607v-6.911h-7.963v15.752a.912.912 0 010 .004l-.158 34.377h9.275l.076-28.127v-.004c-.004-3.054.327-5.962 2.57-9.107l.001-.002c1.352-1.902 3.572-4.196 5.728-5.368 2.042-1.115 4.746-1.538 6.963-1.433a.912.912 0 01.001 0c4.229.206 7.426 2.095 9.482 4.884 2.056 2.788 3.009 6.426 3.056 10.217a.912.912 0 010 .01v17.65a.912.912 0 01-.388.747l.376-.264v10.877h9.34V79.967a.912.912 0 010-.014c.075-4.57.108-9.757-.163-14.444-.272-4.686-.88-8.895-1.944-11.353v-.001c-3.291-7.59-10.294-11.625-17.723-11.597zm-48.054.014c-2.427.299-3.805 2.724-3.426 4.506.185.729.904 1.804 1.787 2.894.889 1.094 1.91 2.216 2.631 3.325h-.001c2.117 3.25 3.235 6.987 3.537 10.8.962 12.196-10.466 21.99-22.12 21.726-11.35-.266-21.068-10.94-20.277-22.366.226-3.315 1.883-7.522 3.749-10.186 1.667-2.38 4.084-4.463 4.415-6.741.292-2.015-.315-2.904-1.363-3.457-1.022-.538-2.648-.594-4.24-.184-4.195 2.55-7.079 7.163-8.728 11.856-6.362 18.116 5.918 38.755 25.827 38.988 15.364.176 28.589-9.334 30.67-25.145.934-7.09-.963-14.122-4.836-20.136a.912.912 0 01-.001-.002c-1.421-2.212-4.299-5.407-6.549-5.871a4.491 4.491 0 00-1.075-.007z" fill="#06d0d3"/></svg>